HIERARCHY
ROOT Hips
{
    OFFSET 0.000000 0.000000 0.000000
    CHANNELS 6 Xposition Yposition Zposition Zrotation Xrotation Yrotation
    JOINT Spine
    {
        OFFSET -0.000000 0.068295 0.000000
        CHANNELS 3 Zrotation Xrotation Yrotation
        JOINT Spine1
        {
            OFFSET -0.000000 0.198479 0.000000
            CHANNELS 3 Zrotation Xrotation Yrotation
            JOINT Neck
            {
                OFFSET -0.000000 0.215136 0.000000
                CHANNELS 3 Zrotation Xrotation Yrotation
                JOINT Head
                {
                    OFFSET -0.000000 0.090366 0.016657
                    CHANNELS 3 Zrotation Xrotation Yrotation
                    End Site
                    {
                        OFFSET -0.000000 0.166573 0.000000
                    }
                }
            }
            JOINT LeftShoulder
            {
                OFFSET 0.033522 0.175145 -0.001055
                CHANNELS 3 Zrotation Xrotation Yrotation
                JOINT LeftArm
                {
                    OFFSET 0.121214 0.000000 0.000000
                    CHANNELS 3 Zrotation Xrotation Yrotation
                    JOINT LeftForeArm
                    {
                        OFFSET 0.261115 0.000000 0.000000
                        CHANNELS 3 Zrotation Xrotation Yrotation
                        JOINT LeftHand
                        {
                            OFFSET 0.230096 0.000000 0.000000
                            CHANNELS 3 Zrotation Xrotation Yrotation
                            End Site
                            {
                                OFFSET 0.000000 -0.124930 0.000000
                            }
                        }
                    }
                }
            }
            JOINT RightShoulder
            {
                OFFSET -0.033103 0.175145 -0.001055
                CHANNELS 3 Zrotation Xrotation Yrotation
                JOINT RightArm
                {
                    OFFSET -0.121214 0.000000 0.000000
                    CHANNELS 3 Zrotation Xrotation Yrotation
                    JOINT RightForeArm
                    {
                        OFFSET -0.261115 0.000000 0.000000
                        CHANNELS 3 Zrotation Xrotation Yrotation
                        JOINT RightHand
                        {
                            OFFSET -0.230096 0.000000 0.000000
                            CHANNELS 3 Zrotation Xrotation Yrotation
                            End Site
                            {
                                OFFSET -0.000000 -0.124930 0.000000
                            }
                        }
                    }
                }
            }
        }
    }
    JOINT LeftUpLeg
    {
        OFFSET 0.083287 0.000000 0.000000
        CHANNELS 3 Zrotation Xrotation Yrotation
        JOINT LeftLeg
        {
            OFFSET -0.000000 -0.281128 0.000000
            CHANNELS 3 Zrotation Xrotation Yrotation
            JOINT LeftFoot
            {
                OFFSET -0.000000 -0.491911 0.000000
                CHANNELS 3 Zrotation Xrotation Yrotation
                JOINT LeftToeBase
                {
                    OFFSET -0.000000 -0.054136 0.124930
                    CHANNELS 3 Zrotation Xrotation Yrotation
                    End Site
                    {
                        OFFSET -0.000000 0.000000 0.033315
                    }
                }
            }
        }
    }
    JOINT RightUpLeg
    {
        OFFSET -0.083287 0.000000 0.000000
        CHANNELS 3 Zrotation Xrotation Yrotation
        JOINT RightLeg
        {
            OFFSET -0.000000 -0.281128 0.000000
            CHANNELS 3 Zrotation Xrotation Yrotation
            JOINT RightFoot
            {
                OFFSET -0.000000 -0.491911 0.000000
                CHANNELS 3 Zrotation Xrotation Yrotation
                JOINT RightToeBase
                {
                    OFFSET -0.000000 -0.054136 0.124930
                    CHANNELS 3 Zrotation Xrotation Yrotation
                    End Site
                    {
                        OFFSET -0.000000 0.000000 0.033315
                    }
                }
            }
        }
    }
}
MOTION
Frames:    4
Frame Time:    0.010000
0.128891    0.851503    0.113462    -4.975510    2.802794    -125.491760    -3.951988    -4.319342    -12.949701    16.671612    7.484568    -5.368408    -14.924550    -5.264306    22.589264    7.362825    6.506023    20.731365    13.883002    -8.718086    -13.366423    -10.704935    24.335958    -31.461025    8.093746    -15.682260    0.406706    79.806595    -7.902704    1.675233    -3.814644    -3.600872    21.298298    25.931458    57.657661    58.361767    -8.737906    -58.031109    141.613327    -87.876266    -17.823847    -41.449238    -8.433922    10.462065    -3.617778    -1.756779    2.341149    9.801057    -1.561500    16.671982    63.466827    0.000000    0.000000    0.000000    -10.830061    2.744219    -6.139202    -1.115195    23.915646    -5.118964    -0.171512    -10.018887    -32.950306    0.000000    0.000000    0.000000    
0.128958    0.850785    0.113314    -4.652180    2.750078    -126.437592    -4.071954    -4.722706    -12.551503    16.734493    7.748101    -5.272591    -14.156400    -5.485913    22.098885    7.502536    6.799757    20.275154    14.010192    -8.490207    -13.066838    -11.083608    23.264784    -30.840984    8.164357    -17.600685    -0.140014    77.539040    -11.345407    1.633494    -3.960278    -3.910175    21.198347    27.084700    57.875050    56.947575    -8.966751    -58.263268    141.160751    -88.088013    -17.639135    -41.549805    -8.270289    10.333180    -3.778739    -1.968521    2.055795    10.456475    -1.428275    15.421514    62.968857    0.000000    0.000000    0.000000    -10.699986    2.403156    -6.139364    -1.246054    23.593733    -4.980790    0.014652    -10.231347    -32.746819    0.000000    0.000000    0.000000    
0.128732    0.850179    0.113019    -4.513111    2.782996    -127.132027    -4.256805    -5.007766    -12.201315    16.872400    8.112709    -5.213593    -13.581013    -5.908727    21.658676    7.886600    7.394857    19.810797    13.768655    -8.308397    -12.901376    -11.339366    21.538662    -30.202057    8.065034    -20.556355    -0.825724    73.890114    -13.902419    0.655560    -4.210070    -3.731001    21.047556    27.652468    57.551247    56.223595    -9.241753    -58.617496    140.536270    -88.102844    -17.276112    -41.798809    -8.162157    10.370616    -3.817574    -2.104399    1.885568    10.924715    -1.436150    13.758389    62.077667    0.000000    0.000000    0.000000    -10.575500    2.438101    -6.110855    -1.298527    23.147196    -5.064009    0.078443    -10.365641    -32.567364    0.000000    0.000000    0.000000    
0.128328    0.849697    0.112742    -4.522651    2.876577    -127.608360    -4.399816    -5.189662    -11.911571    16.850979    8.501301    -5.168754    -12.823885    -6.120296    21.227013    7.796475    7.735576    19.443445    13.608241    -8.283600    -12.652761    -11.845328    19.879063    -29.751453    7.862688    -24.430740    -1.489748    70.381866    -16.248669    -0.581588    -4.240482    -3.616136    20.876644    27.618069    57.489922    56.118839    -9.736443    -59.379177    139.608429    -88.292625    -16.785374    -42.373920    -8.117468    10.599443    -3.777002    -2.085378    1.766016    11.296614    -2.030003    9.072609    59.076469    0.000000    0.000000    0.000000    -10.497117    2.696498    -6.044941    -1.270272    22.701984    -5.119843    -0.083912    -10.425234    -32.770653    0.000000    0.000000    0.000000    
